PathFileType	4	(X/Y/Z)	C:/Users/opensim2020/Desktop/walking_exp_matlab/subject03_walking06_straight_02.trc	
DataRate	CameraRate	NumFrames	NumMarkers	Units	OrigDataRate	OrigDataStartFrame	OrigNumFrames	
100.00	100.00	8	44	mm	100.00	1340	238	
Frame#	Time	LFHD			RFHD			LBHD			RBHD			C7			T10			CLAV			STRN			RBAK			LSHO			LUPA			LELB			LFRM			LWRA			LWRB			LFIN			RSHO			RUPA			RELB			RFRM			RWRA			RWRB			RFIN			LASI			RASI			LPSI			RPSI			LTHI			LKNE			LTIB			LANK			LHEE			LTOE			RTHI			RKNE			RTIB			RANK			RHEE			RTOE			*39			*40			*41			*42			*43			
		X1	Y1	Z1	X2	Y2	Z2	X3	Y3	Z3	X4	Y4	Z4	X5	Y5	Z5	X6	Y6	Z6	X7	Y7	Z7	X8	Y8	Z8	X9	Y9	Z9	X10	Y10	Z10	X11	Y11	Z11	X12	Y12	Z12	X13	Y13	Z13	X14	Y14	Z14	X15	Y15	Z15	X16	Y16	Z16	X17	Y17	Z17	X18	Y18	Z18	X19	Y19	Z19	X20	Y20	Z20	X21	Y21	Z21	X22	Y22	Z22	X23	Y23	Z23	X24	Y24	Z24	X25	Y25	Z25	X26	Y26	Z26	X27	Y27	Z27	X28	Y28	Z28	X29	Y29	Z29	X30	Y30	Z30	X31	Y31	Z31	X32	Y32	Z32	X33	Y33	Z33	X34	Y34	Z34	X35	Y35	Z35	X36	Y36	Z36	X37	Y37	Z37	X38	Y38	Z38	X39	Y39	Z39	X40	Y40	Z40	X41	Y41	Z41	X42	Y42	Z42	X43	Y43	Z43	X44	Y44	Z44	

60	0.590	-937.42834	516.84705	1606.57605	-1070.35742	524.40723	1611.56531	-934.72467	647.86835	1571.23962	-1065.76843	650.24414	1575.53137	-995.18164	687.27661	1410.34363	-1000.51868	730.48859	1097.65149	-996.70667	567.75635	1330.79810	-995.36346	528.62750	1164.79663	-1097.62683	743.20996	1238.64343	-839.87671	612.13959	1366.11035	-772.94788	636.38092	1166.78381	-765.64655	640.96259	1043.05127	-769.01300	630.33875	913.13043	-801.15485	628.44781	794.30231	-747.88013	646.82788	801.47003	-759.83997	643.98492	716.76111	-1155.06299	610.06055	1358.69519	-1235.30896	570.55402	1145.50452	-1248.66736	524.55902	1044.34814	-1240.76709	453.22900	928.60931	-1196.66284	387.95541	859.69379	-1239.78601	410.93698	837.64392	-1224.52856	358.00824	787.64978	-892.44672	555.82587	934.46808	-1128.98120	566.07214	935.26141	-933.37042	721.17548	946.90106	-1083.04382	724.99194	961.47894	-841.73743	521.67719	641.30682	-877.49182	450.52359	478.71115	-874.06757	474.11337	283.93588	-909.84680	464.90683	73.71304	-949.04059	501.90988	33.99317	-931.02716	319.06711	49.97613	-1157.92822	639.02954	638.25262	-1117.67114	645.39923	459.11563	-1115.37183	715.98157	279.57022	-1061.25476	776.70697	72.51991	-1010.32721	823.38440	43.65902	-1051.64771	638.03510	31.98052	-982.81653	596.61847	1676.18445												 
61	0.600	-937.13696	507.38406	1605.33948	-1070.04065	515.02325	1610.47546	-934.33215	638.30432	1569.68933	-1065.38660	640.76746	1574.19861	-994.87927	677.59271	1409.04968	-999.63495	721.03699	1096.37817	-996.67291	558.04254	1329.45789	-995.45929	519.12366	1163.42261	-1097.32825	733.89172	1237.56335	-839.66577	602.07068	1364.71216	-772.72778	628.14258	1165.52332	-765.35516	634.06616	1041.81702	-768.72437	625.22168	911.76904	-800.66644	625.18878	792.88574	-747.38422	643.03027	800.36487	-759.26678	641.78827	715.46246	-1154.82849	600.48413	1357.37927	-1235.07874	560.50293	1144.36536	-1248.09778	513.94183	1043.49585	-1239.12354	441.16913	928.86560	-1194.22107	375.06836	861.15033	-1237.26428	397.75363	838.56421	-1221.54102	343.85950	789.73602	-892.26038	545.75958	932.72687	-1128.89624	557.28387	934.00366	-932.43439	711.33246	945.30414	-1082.10205	716.04456	960.28827	-841.61987	515.29395	638.05762	-878.86029	442.84326	476.31488	-874.63135	457.52151	281.91702	-909.40063	437.14615	72.08852	-948.06348	472.61658	31.37042	-931.62146	289.94864	53.25406	-1157.97583	632.62738	637.52338	-1117.85876	640.45239	458.31812	-1115.05286	713.31866	279.48239	-1061.20898	776.29510	73.09841	-1010.14880	823.19873	44.77863	-1051.71875	637.96600	31.90989	-982.55890	587.49567	1675.04968												 
62	0.610	-936.75946	497.91205	1603.99963	-1069.59961	505.59387	1609.40613	-933.98230	628.79230	1568.17627	-1065.01990	631.25928	1572.88477	-994.62091	667.85950	1407.75537	-998.65723	711.58533	1095.09082	-996.54755	548.27814	1328.16089	-995.44226	509.48123	1162.04626	-1096.86145	724.48895	1236.39526	-839.39233	591.99225	1363.37439	-772.42096	619.85260	1164.27051	-765.03284	627.12170	1040.65759	-768.34985	619.84399	910.44818	-800.40271	621.37439	791.49316	-746.80908	638.98492	799.33105	-759.06006	639.74231	714.37250	-1154.57727	590.72656	1355.83997	-1234.76135	550.41901	1143.16760	-1247.50684	503.45953	1042.54199	-1237.47791	429.38348	928.89923	-1191.76172	362.74841	862.38135	-1234.86938	384.69107	839.21259	-1218.57178	330.25275	791.38116	-892.05072	535.79736	930.88739	-1128.65723	548.36212	932.79834	-931.51080	701.46881	943.71466	-1081.11267	707.07367	959.09961	-841.32507	508.97861	634.76727	-880.17120	435.38861	473.80252	-875.14789	441.88300	280.23199	-908.97479	410.66678	71.21181	-947.75214	444.11575	29.40647	-932.09204	262.39166	57.20234	-1158.07263	626.15027	636.80682	-1117.99756	635.40601	457.54150	-1115.06433	710.36096	279.46530	-1061.15674	775.82593	73.86291	-1009.88336	823.00720	46.09683	-1051.73438	637.91986	31.82609	-981.70190	577.82971	1673.56665												 
63	0.620	-936.26398	488.37161	1602.74268	-1069.17163	496.08408	1608.34143	-933.58551	619.16089	1566.58911	-1064.64954	621.72467	1571.58533	-994.29437	658.06854	1406.44849	-997.63745	701.89624	1093.79919	-996.35803	538.41101	1326.82300	-995.36768	499.73938	1160.70740	-1096.34827	715.01123	1235.20239	-839.02692	581.91412	1362.07886	-772.16864	611.33264	1163.07031	-764.76239	620.02368	1039.54395	-767.99194	614.29816	909.26160	-799.97687	617.20941	790.32190	-746.75800	634.94330	798.18036	-758.58893	636.93933	713.34888	-1154.29114	581.18292	1354.62988	-1234.34033	540.37543	1141.90247	-1246.84460	493.08337	1041.52466	-1236.04199	417.96463	928.45825	-1189.42957	350.97934	862.91522	-1232.43958	372.25879	839.59283	-1215.63489	317.29709	792.76642	-891.74744	525.66443	929.00134	-1128.89734	539.78540	931.49689	-930.59015	691.45709	942.15497	-1080.08154	698.02643	957.90906	-840.87366	502.57309	631.59021	-881.51831	428.22763	471.39203	-875.74426	427.00650	278.81259	-908.85870	385.88327	70.92801	-946.98541	417.72595	28.41999	-932.46307	236.48178	61.51899	-1158.13330	619.65906	636.12079	-1118.18530	630.24341	456.76022	-1114.95264	707.46283	279.52606	-1060.82751	775.39368	74.63286	-1009.40161	822.72638	47.48701	-1051.72986	637.84869	31.76258	-981.42554	568.85693	1672.37659												 
64	0.630	-935.80865	478.84760	1601.55115	-1068.66296	486.57846	1607.37878	-933.17017	609.48462	1565.10767	-1064.12378	612.02563	1570.23694	-993.84668	648.17200	1405.20801	-996.59906	692.15179	1092.58704	-996.14319	528.46234	1325.62073	-995.22314	489.91043	1159.44458	-1095.69446	705.48047	1233.98645	-838.61169	571.74231	1360.89001	-771.87598	602.81195	1162.00037	-764.40594	612.79755	1038.52979	-767.63593	608.33466	908.16785	-799.39063	612.60199	789.29846	-746.27838	630.32123	797.38165	-758.15009	633.57062	712.47687	-1153.94653	571.45966	1353.30688	-1233.86829	530.38965	1140.68298	-1246.08691	482.87411	1040.40894	-1234.38171	406.87601	928.13934	-1186.94128	339.52328	863.42676	-1230.16956	360.30905	839.70331	-1212.85693	304.79080	793.63556	-891.54852	515.38531	927.20154	-1128.81555	530.84583	930.14264	-929.59869	681.42072	940.64862	-1079.05713	688.91376	956.67749	-840.28021	495.80203	628.64178	-882.69391	421.11017	468.84717	-876.45380	413.03070	277.55789	-908.38214	362.68762	71.74274	-946.76440	393.29919	28.24217	-932.75421	212.59802	65.88517	-1158.18469	612.99475	635.42651	-1118.27466	625.02606	456.06799	-1114.73901	704.47217	279.68021	-1060.60266	774.93231	75.65395	-1009.03284	822.37640	48.95655	-1051.75403	637.75873	31.71867	-980.89948	559.31653	1670.92920												 
65	0.640	-935.32898	469.14603	1600.51404	-1068.18970	477.01547	1606.45300	-932.67468	599.84692	1563.63574	-1063.69556	602.41193	1568.99414	-993.35333	638.23987	1403.99719	-995.58533	682.32306	1091.45215	-995.80756	518.40082	1324.43188	-995.01416	479.91226	1158.28979	-1094.94800	695.85156	1232.79712	-838.12012	561.56183	1359.77429	-771.54169	594.09155	1160.99280	-764.01355	605.29694	1037.56628	-767.13116	602.13739	907.20001	-798.87268	607.52618	788.38226	-745.78192	625.37622	796.64948	-757.79547	629.78058	711.75330	-1153.62048	561.73242	1352.08765	-1233.28320	520.34546	1139.46143	-1245.20129	472.67624	1039.21228	-1232.77161	396.04700	927.63940	-1184.81165	328.40329	863.67346	-1227.93286	348.77380	839.47906	-1210.15039	293.03030	794.15131	-891.31848	504.94077	925.51740	-1128.67371	521.74622	928.82886	-928.57922	671.22479	939.31122	-1077.98438	679.66412	955.48431	-839.67938	488.48819	626.12054	-883.70190	414.16721	466.47614	-877.15112	399.98376	276.61578	-908.14703	341.95099	72.16814	-946.30774	370.98651	28.28999	-932.90045	190.84280	70.16786	-1158.18335	606.19940	634.78760	-1118.47266	619.65942	455.51520	-1114.61206	701.44171	280.01236	-1060.24463	774.50403	76.86382	-1008.61151	821.99469	50.60711	-1051.75830	637.67065	31.65370	-979.88330	549.84967	1669.73303												 
66	0.650	-934.76605	459.61758	1599.45935	-1067.60876	467.42700	1605.60571	-932.19586	590.06299	1562.27917	-1063.20300	592.75079	1567.78418	-992.79169	628.23517	1402.86694	-994.63635	672.23224	1090.31812	-995.49573	508.19229	1323.41980	-994.81323	469.77612	1157.17065	-1094.15186	686.10309	1231.65967	-837.58618	551.24176	1358.76270	-771.15466	585.31213	1160.07507	-763.54077	597.71643	1036.80249	-766.57434	595.74420	906.37323	-798.31799	601.99878	787.53485	-745.32788	620.10773	796.02032	-757.31189	625.42584	711.16473	-1153.16748	551.94897	1350.84802	-1232.55371	510.37598	1138.29504	-1244.21936	462.62988	1038.04773	-1231.18506	385.60110	926.91357	-1182.71436	317.82065	863.73126	-1225.70837	337.88739	839.10571	-1207.63928	281.76553	794.25012	-891.21130	494.50491	924.04333	-1128.53174	512.68689	927.62744	-927.45886	660.95758	938.18286	-1076.84790	670.29620	954.41064	-839.14551	480.67145	623.97968	-884.63525	407.30951	464.07047	-877.76947	387.79376	275.83325	-907.72791	323.45346	73.24957	-946.18286	350.82513	28.57136	-933.09692	171.68198	74.46640	-1158.02930	599.34515	634.31470	-1118.63586	614.14252	455.01196	-1114.58948	698.23932	280.47595	-1060.16492	773.95850	78.24068	-1008.37842	821.62878	52.57421	-1051.79236	637.54364	31.58858	-979.62372	540.56012	1668.81995												 
67	0.660	-934.14429	449.90939	1598.60938	-1067.01514	457.81863	1604.88586	-931.57916	580.30023	1560.98352	-1062.60876	583.01581	1566.63208	-992.15814	618.12152	1401.79407	-993.68158	662.07928	1089.29260	-995.08496	497.96548	1322.44360	-994.61932	459.54706	1156.21338	-1093.25415	676.32935	1230.65454	-837.00720	540.85168	1357.82092	-770.65295	576.40564	1159.28699	-762.80945	589.74139	1036.33118	-765.96783	588.99561	905.67444	-797.38763	596.50787	786.99420	-744.82178	614.41199	795.52307	-756.86591	620.50208	710.74213	-1152.71912	542.14874	1349.77966	-1231.75549	500.46393	1137.17432	-1243.13367	452.67847	1036.86633	-1229.60754	375.41431	926.09259	-1180.76733	307.52924	863.22400	-1223.70813	327.29785	838.47955	-1205.21130	271.14645	793.97632	-891.09521	483.78485	922.84869	-1128.32727	503.39224	926.50903	-926.30072	650.67328	937.32184	-1075.64246	660.74695	953.45178	-838.92804	472.18549	622.21161	-885.52075	400.10016	461.79303	-878.29120	376.75708	275.16687	-907.43494	307.18298	73.85301	-945.69293	333.45618	28.33983	-933.12476	155.25476	78.38252	-1157.80103	592.22986	633.90924	-1118.75354	608.36505	454.57660	-1114.56104	694.80371	281.04626	-1060.12158	773.21552	79.76455	-1008.29028	821.20404	54.83107	-1051.75183	637.44788	31.47961	-979.09686	531.19415	1667.47412												 
